<mxfile host="app.diagrams.net" modified="2020-06-18T15:43:37.338Z" agent="5.0 (Windows NT 10.0; Win64; x64) AppleWebKit/537.36 (KHTML, like Gecko) Chrome/83.0.4103.106 Safari/537.36" etag="wlLSqBgHGajmfTkqJ2AK" version="13.2.6" type="github">
  <diagram id="MJYNdHisa2NbRyyXpYyt" name="Page-1">
    <mxGraphModel dx="1874" dy="796" grid="1" gridSize="10" guides="1" tooltips="1" connect="1" arrows="1" fold="1" page="1" pageScale="1" pageWidth="850" pageHeight="1100" math="0" shadow="1">
      <root>
        <mxCell id="0" />
        <mxCell id="1" parent="0" />
        <mxCell id="nftmeqfcO3UOQJrNgUaF-7" style="edgeStyle=orthogonalEdgeStyle;rounded=0;orthogonalLoop=1;jettySize=auto;html=1;entryX=0;entryY=0.527;entryDx=0;entryDy=0;entryPerimeter=0;" parent="1" source="nftmeqfcO3UOQJrNgUaF-1" target="nftmeqfcO3UOQJrNgUaF-3" edge="1">
          <mxGeometry relative="1" as="geometry" />
        </mxCell>
        <mxCell id="nftmeqfcO3UOQJrNgUaF-8" style="edgeStyle=orthogonalEdgeStyle;rounded=0;orthogonalLoop=1;jettySize=auto;html=1;exitX=0.806;exitY=0.497;exitDx=0;exitDy=0;exitPerimeter=0;" parent="1" source="nftmeqfcO3UOQJrNgUaF-1" target="nftmeqfcO3UOQJrNgUaF-4" edge="1">
          <mxGeometry relative="1" as="geometry" />
        </mxCell>
        <mxCell id="ayA_f1j_V87uIdwJO3n0-5" style="edgeStyle=orthogonalEdgeStyle;rounded=0;orthogonalLoop=1;jettySize=auto;html=1;entryX=0.533;entryY=1.025;entryDx=0;entryDy=0;entryPerimeter=0;" parent="1" source="nftmeqfcO3UOQJrNgUaF-1" target="ayA_f1j_V87uIdwJO3n0-1" edge="1">
          <mxGeometry relative="1" as="geometry" />
        </mxCell>
        <mxCell id="nftmeqfcO3UOQJrNgUaF-1" value="" style="html=1;dashed=0;whitespace=wrap;fillColor=#2875E2;strokeColor=#ffffff;points=[[0.005,0.63,0],[0.1,0.2,0],[0.9,0.2,0],[0.5,0,0],[0.995,0.63,0],[0.72,0.99,0],[0.5,1,0],[0.28,0.99,0]];shape=mxgraph.kubernetes.icon;prIcon=api" parent="1" vertex="1">
          <mxGeometry x="280" y="164.4" width="180" height="118" as="geometry" />
        </mxCell>
        <mxCell id="nftmeqfcO3UOQJrNgUaF-3" value="" style="dashed=0;outlineConnect=0;html=1;align=center;labelPosition=center;verticalLabelPosition=bottom;verticalAlign=top;shape=mxgraph.webicons.aws_s3;gradientColor=#DFDEDE" parent="1" vertex="1">
          <mxGeometry x="680" y="160" width="130" height="122.4" as="geometry" />
        </mxCell>
        <mxCell id="nftmeqfcO3UOQJrNgUaF-4" value="Email&#xa;notification" style="outlineConnect=0;fontColor=#232F3E;gradientColor=none;strokeColor=#232F3E;fillColor=#ffffff;dashed=0;verticalLabelPosition=bottom;verticalAlign=top;align=center;html=1;fontSize=12;fontStyle=0;aspect=fixed;shape=mxgraph.aws4.resourceIcon;resIcon=mxgraph.aws4.email_notification;" parent="1" vertex="1">
          <mxGeometry x="500" y="354.4" width="150" height="150" as="geometry" />
        </mxCell>
        <mxCell id="nftmeqfcO3UOQJrNgUaF-10" value="AWS &lt;br&gt;S3 bucket" style="text;html=1;strokeColor=none;fillColor=none;align=center;verticalAlign=middle;whiteSpace=wrap;rounded=0;" parent="1" vertex="1">
          <mxGeometry x="707.5" y="286.2" width="75" height="50" as="geometry" />
        </mxCell>
        <mxCell id="nftmeqfcO3UOQJrNgUaF-22" style="edgeStyle=orthogonalEdgeStyle;rounded=0;orthogonalLoop=1;jettySize=auto;html=1;" parent="1" source="nftmeqfcO3UOQJrNgUaF-12" target="nftmeqfcO3UOQJrNgUaF-1" edge="1">
          <mxGeometry relative="1" as="geometry" />
        </mxCell>
        <mxCell id="nftmeqfcO3UOQJrNgUaF-12" value="" style="rounded=0;whiteSpace=wrap;html=1;" parent="1" vertex="1">
          <mxGeometry x="40" y="100" width="120" height="60" as="geometry" />
        </mxCell>
        <mxCell id="nftmeqfcO3UOQJrNgUaF-13" value="Web Application&amp;nbsp;" style="text;html=1;strokeColor=none;fillColor=none;align=center;verticalAlign=middle;whiteSpace=wrap;rounded=0;" parent="1" vertex="1">
          <mxGeometry x="60" y="120" width="90" height="20" as="geometry" />
        </mxCell>
        <mxCell id="nftmeqfcO3UOQJrNgUaF-14" value="" style="rounded=0;whiteSpace=wrap;html=1;" parent="1" vertex="1">
          <mxGeometry x="45" y="191.2" width="120" height="60" as="geometry" />
        </mxCell>
        <mxCell id="nftmeqfcO3UOQJrNgUaF-23" style="edgeStyle=orthogonalEdgeStyle;rounded=0;orthogonalLoop=1;jettySize=auto;html=1;" parent="1" edge="1">
          <mxGeometry relative="1" as="geometry">
            <mxPoint x="170" y="221" as="sourcePoint" />
            <mxPoint x="310" y="221" as="targetPoint" />
          </mxGeometry>
        </mxCell>
        <mxCell id="nftmeqfcO3UOQJrNgUaF-15" value="SSIS&amp;nbsp;" style="text;html=1;strokeColor=none;fillColor=none;align=center;verticalAlign=middle;whiteSpace=wrap;rounded=0;" parent="1" vertex="1">
          <mxGeometry x="60" y="211.2" width="90" height="20" as="geometry" />
        </mxCell>
        <mxCell id="nftmeqfcO3UOQJrNgUaF-16" value="" style="rounded=0;whiteSpace=wrap;html=1;" parent="1" vertex="1">
          <mxGeometry x="42.5" y="310" width="120" height="60" as="geometry" />
        </mxCell>
        <mxCell id="nftmeqfcO3UOQJrNgUaF-24" style="edgeStyle=orthogonalEdgeStyle;rounded=0;orthogonalLoop=1;jettySize=auto;html=1;entryX=0.272;entryY=0.836;entryDx=0;entryDy=0;entryPerimeter=0;" parent="1" target="nftmeqfcO3UOQJrNgUaF-1" edge="1">
          <mxGeometry relative="1" as="geometry">
            <mxPoint x="108" y="310" as="sourcePoint" />
            <Array as="points">
              <mxPoint x="108" y="270" />
              <mxPoint x="329" y="270" />
            </Array>
          </mxGeometry>
        </mxCell>
        <mxCell id="nftmeqfcO3UOQJrNgUaF-17" value="Standalone Application&amp;nbsp;" style="text;html=1;strokeColor=none;fillColor=none;align=center;verticalAlign=middle;whiteSpace=wrap;rounded=0;" parent="1" vertex="1">
          <mxGeometry x="62.5" y="330" width="90" height="20" as="geometry" />
        </mxCell>
        <mxCell id="nftmeqfcO3UOQJrNgUaF-25" style="edgeStyle=orthogonalEdgeStyle;rounded=0;orthogonalLoop=1;jettySize=auto;html=1;" parent="1" source="nftmeqfcO3UOQJrNgUaF-18" target="nftmeqfcO3UOQJrNgUaF-1" edge="1">
          <mxGeometry relative="1" as="geometry" />
        </mxCell>
        <mxCell id="nftmeqfcO3UOQJrNgUaF-18" value="" style="rounded=0;whiteSpace=wrap;html=1;" parent="1" vertex="1">
          <mxGeometry x="47.5" y="401.2" width="120" height="60" as="geometry" />
        </mxCell>
        <mxCell id="nftmeqfcO3UOQJrNgUaF-19" value="PC&lt;br&gt;" style="text;html=1;strokeColor=none;fillColor=none;align=center;verticalAlign=middle;whiteSpace=wrap;rounded=0;" parent="1" vertex="1">
          <mxGeometry x="62.5" y="421.2" width="90" height="20" as="geometry" />
        </mxCell>
        <mxCell id="ayA_f1j_V87uIdwJO3n0-1" value="" style="shape=cube;whiteSpace=wrap;html=1;boundedLbl=1;backgroundOutline=1;darkOpacity=0.05;darkOpacity2=0.1;" parent="1" vertex="1">
          <mxGeometry x="510" y="20" width="120" height="80" as="geometry" />
        </mxCell>
        <mxCell id="ayA_f1j_V87uIdwJO3n0-2" value="ECM&amp;nbsp;" style="text;html=1;strokeColor=none;fillColor=none;align=center;verticalAlign=middle;whiteSpace=wrap;rounded=0;" parent="1" vertex="1">
          <mxGeometry x="555" y="60" width="40" height="20" as="geometry" />
        </mxCell>
        <mxCell id="nftmeqfcO3UOQJrNgUaF-9" value="Content gateway&lt;br&gt;&lt;br&gt;Java API" style="text;html=1;strokeColor=none;fillColor=none;align=center;verticalAlign=middle;whiteSpace=wrap;rounded=0;" parent="1" vertex="1">
          <mxGeometry x="320" y="282.4" width="110" height="57.6" as="geometry" />
        </mxCell>
        <mxCell id="ayA_f1j_V87uIdwJO3n0-9" value="&lt;h1&gt;java API&lt;/h1&gt;&lt;p&gt;Following are the functionality java api will provide.&amp;nbsp;&lt;/p&gt;&lt;p&gt;1. Coverts the data provided into PDF.&lt;/p&gt;&lt;p&gt;2. Can send content to all System based on the flag from requesting system..&lt;/p&gt;&lt;p&gt;3. If the api is requested to push the document to S3 then api will set the security level 1 with users name&amp;nbsp;&lt;/p&gt;&lt;p&gt;&lt;br&gt;&lt;/p&gt;" style="text;html=1;strokeColor=none;fillColor=none;spacing=5;spacingTop=-20;whiteSpace=wrap;overflow=hidden;rounded=0;" parent="1" vertex="1">
          <mxGeometry x="7.5" y="620" width="192.5" height="280" as="geometry" />
        </mxCell>
      </root>
    </mxGraphModel>
  </diagram>
</mxfile>
